<svg xmlns="http://www.w3.org/2000/svg" width="36" height="35" viewBox="0 0 36 35"><defs><clipPath id="nxkxa"><path fill="#fff" d="M.456 17.5C.456 7.835 8.291 0 17.956 0s17.5 7.835 17.5 17.5S27.621 35 17.956 35 .456 27.165.456 17.5z"/></clipPath></defs><g><g><path fill="#fff" d="M.456 17.5C.456 7.835 8.291 0 17.956 0s17.5 7.835 17.5 17.5S27.621 35 17.956 35 .456 27.165.456 17.5z"/><path fill="none" stroke="#4f2982" stroke-miterlimit="20" stroke-width="2" d="M.456 17.5C.456 7.835 8.291 0 17.956 0s17.5 7.835 17.5 17.5S27.621 35 17.956 35 .456 27.165.456 17.5z" clip-path="url(&quot;#nxkxa&quot;)"/></g><g><path fill="#362280" d="M22.076 16.18c0 3-2.44 5.44-5.44 5.44-3.01 0-5.46-2.44-5.46-5.44 0-3.01 2.45-5.46 5.46-5.46 3 0 5.44 2.45 5.44 5.46zM26.356 28l2.1-2.1-5.08-5.1a8.107 8.107 0 0 0 1.44-4.62c0-4.51-3.67-8.18-8.18-8.18s-8.18 3.67-8.18 8.18 3.67 8.18 8.18 8.18c1.62 0 3.267-.511 4.64-1.44L26.355 28z"/></g></g></svg>