<svg xmlns="http://www.w3.org/2000/svg" width="60" height="40" viewBox="0 0 60 40"><g><g><path fill="#362280" d="M49.318 10.13l-.32-.005.002-.25c0-.127-.001-.255-.004-.384l.32-.008c.003.132.005.263.004.392zm-.06.974l-.317-.036c.022-.199.037-.41.047-.628l.32.014c-.01.227-.026.444-.05.65zm-.19.971l-.304-.096c.054-.173.1-.376.135-.601l.317.05c-.038.242-.088.459-.147.647zm-.573.87l-.071-.12-.145-.104.054-.051c.123-.073.232-.211.325-.41l.29.134c-.12.26-.273.446-.453.552zm-.48.76zm-.273-.168c.141-.23.26-.412.349-.545l.266.178c-.088.13-.204.31-.343.535zm-.208.992l-.28-.156c.113-.205.221-.392.32-.56l.275.163c-.096.166-.203.35-.315.553zm-.45.843zm-.285-.145c.104-.202.204-.393.3-.571l.282.152c-.096.176-.194.365-.297.564zm-.133 1.004l-.29-.136c.094-.202.188-.395.28-.58l.286.142c-.09.182-.182.374-.276.574zm-.395.872l-.293-.128c.088-.203.176-.4.261-.588l.292.134c-.086.186-.172.38-.26.582zm-.37.881l-.297-.119c.082-.204.165-.403.246-.595l.295.125c-.08.19-.163.387-.243.59zm-.346.893l-.3-.113.032-.085-.465.015-.01-.32.6-.02.073-.19.298.117c-.075.193-.151.393-.228.596zm-.322.9l-.302-.104c.071-.207.143-.409.214-.606l.302.11c-.072.195-.143.396-.214.6zm-.3.91l-.306-.098c.066-.208.133-.412.2-.611l.304.102c-.067.198-.133.4-.199.606zm-.28.915l-.307-.09c.062-.21.123-.414.185-.616l.306.094c-.062.2-.123.404-.184.612zm-.258.922l-.309-.084c.056-.21.113-.416.171-.62l.308.088a59.25 59.25 0 0 0-.17.616zm-.2.78l-.043.153-.308-.09c.015-.047.028-.093.04-.141l.12-.474.31.08-.12.471zm-.467 1.062l-.27-.171c.113-.177.209-.36.284-.543l.296.123c-.083.2-.187.399-.31.591zm-.607.78zm-.234-.218c.146-.156.28-.316.397-.477l.258.189c-.125.17-.266.341-.421.507zm-.484.889zm-.204-.247c.146-.121.306-.261.468-.418l.224.229c-.17.164-.335.309-.488.436zm-.238.596a4.927 4.927 0 0 0-.304.243l-.215-.236c.066-.06.178-.149.326-.262l.185-.143.198.252-.19.146zm-.615.523l-.072.411-.16-.012-.156-.034.091-.528.155-.14.214.239zm-.48 1.378l-.245-.206c.11-.13.199-.302.264-.51l.305.097a1.778 1.778 0 0 1-.323.619zm-.74.374a.908.908 0 0 1-.288-.048l.1-.304a.567.567 0 0 0 .483-.053l.165.274a.873.873 0 0 1-.46.13zm-.18-23.82c.123-.07.282-.119.517-.17l.069.313c-.268.059-.37.1-.406.119a.93.93 0 0 1-.105.095l-.204-.247.129-.11zm-.722.928zm-.174-.269c.196-.127.37-.247.52-.358l.19.258c-.155.114-.334.238-.536.369zm.015 13.644l-.014-.32.639-.03.015.32zm.447 9.297a1.888 1.888 0 0 1-.464-.518l.27-.171c.118.186.247.33.384.431zm-.739-1.07l-.137-.348.297-.117.138.349c.032.081.066.159.101.232l-.288.14a3.797 3.797 0 0 1-.11-.255zm-.29-.75a1.422 1.422 0 0 0-.225-.425l.254-.195c.12.155.21.324.27.503l.037.105-.3.113zm-.914-.986l.124-.224-.292.08a1.46 1.46 0 0 1-.03-.163l-.076.17a5.006 5.006 0 0 0-.583-.214l.093-.307c.198.06.378.13.547.202l-.012-.1.32-.03c.019.196.035.29.046.338l.018-.032c.214.117.4.25.553.39l-.217.236a2.5 2.5 0 0 0-.49-.346zm-1.159-.435a9.164 9.164 0 0 0-.616-.131l.056-.316c.215.038.43.083.639.136zm-.928-.18c-.213-.031-.423-.055-.629-.074l.03-.319c.21.02.427.044.645.076zm-.945-.1a18.029 18.029 0 0 0-.634-.03l.009-.32c.2.005.418.015.648.031zm-1.223-5.447l-.021-.32.638-.042.022.32zm.271 5.41h-.15c-.17 0-.329.003-.48.01l-.015-.32c.155-.007.32-.01.494-.01h.156zm-1.508.117l-.02.004-.047-.001-.014-.321c.19-.035.394-.065.616-.086l.03.319a4.84 4.84 0 0 0-.565.085zm-.414-.008l-.645-.026.013-.32.645.026zm-.968-.04l-.642-.027.013-.32.643.027zm-.962-.04l-.642-.026.012-.32.643.026zm-.963-.041l-.642-.028.014-.32.641.028zm-.963-.041l-.643-.027.014-.32.642.027zm-.962-.042l-.642-.027.014-.32.641.027zm-.962-.041l-.641-.029.003-.084-.271-.073.273.038.009-.201.642.028zm-.982-3.039l.32-.031c.02.221.04.436.056.642l-.319.024a33.553 33.553 0 0 0-.057-.635zm.02 2.998l-.64-.027.013-.32.641.027zm-.961-.04l-.64-.028.012-.32.642.027zm-.962-.043l-.64-.027.014-.32.64.027zm-.96-.041l-.643-.028.013-.32.643.028zm-1.606-.069l.013-.32.628.027v.321zm-.32-.014l-.64-.027.012-.32.642.027zm-.96-.04l-.642-.028.013-.32.642.027zm-.962-.041l-.642-.027.013-.32.642.027zm-.963-.04l-.64-.028.012-.32.642.027zm-.961-.041l-.642-.027.013-.32.642.027zm-.962-.04l-.642-.027.014-.32.641.027zm-.962-.04l-.642-.026.012-.32.643.026zm-1.024-2.334c.195-.057.4-.114.618-.174l.085.308c-.215.059-.42.116-.613.173zm.06 2.296l-.642-.024.012-.32.644.025zm-.98-2.005c.19-.065.393-.131.611-.199l.095.307c-.215.066-.416.131-.604.194zm.016 1.969l-.644-.023.011-.32.645.023zm-.923-1.631c.18-.075.38-.151.602-.232l.109.302a13.79 13.79 0 0 0-.59.226zm-.079 1.599h-.041c-.176 0-.357.012-.534.036l-.045-.317a4.36 4.36 0 0 1 .584-.04l.055.244zm-.802-1.186c.16-.088.353-.183.583-.286l.131.293c-.221.1-.406.191-.561.275zm.615-8.148l.028.319-.638.058-.03-.319c.204-.02.419-.039.64-.058zM9.952 24.21l-.056-.137-.107.066a6.3 6.3 0 0 1-.205-.355l.282-.15c.042.077.087.151.13.226.155-.056.309-.112.468-.15l.071.314a3.633 3.633 0 0 0-.583.186zm-.808.446l-.184-.261c.09-.063.18-.123.273-.18h.023v-.013c.09-.054.18-.104.271-.15l.145.285c-.18.091-.357.199-.528.319zm-.709.603l-.226-.225c.159-.16.322-.309.487-.441l.201.25c-.155.124-.31.264-.462.416zm-.615.711l-.254-.195a8.09 8.09 0 0 1 .417-.502l.237.214a8.477 8.477 0 0 0-.4.483zm-.536.777l-.271-.169c.118-.19.238-.37.36-.54l.26.184c-.117.166-.233.341-.349.525zm-.483.824l-.278-.158.322-.557.275.164zm-.477.834l-.279-.159.318-.555.278.158zm-.474.834l-.28-.157.317-.558.278.158zm-.26.46c-.123.217-.28.263-.39.263a.449.449 0 0 1-.162-.032l.115-.3c.082.032.124-.03.157-.09l.102-.18.28.158zm-.865 0a2.852 2.852 0 0 1-.388-.557l.28-.156c.115.207.233.379.341.494zm-.783-1.465zm.303-.101c.064.19.144.39.232.577l-.29.137a5.62 5.62 0 0 1-.245-.613zm-.483-.781c0-.047.003-.091.008-.132l.317.044a.679.679 0 0 0-.005.088c0 .125.025.292.075.484l-.31.08a2.371 2.371 0 0 1-.085-.564zm.305-2.723c.06.23.114.436.16.625l-.312.075a27.6 27.6 0 0 0-.158-.617zm.307 1.952a1.35 1.35 0 0 1-.29.653l-.252-.2c.125-.157.197-.317.226-.503zm-.303-.337a3.637 3.637 0 0 0-.085-.607l.313-.066c.056.265.085.475.093.66zm-.564-2.46l.31-.082.125.465.5-.026.016.32-.63.032-.006-.13-.148.04zm-.242-.932l.31-.078c.055.215.108.422.16.619l-.31.08a89.37 89.37 0 0 1-.16-.621zm-.225-.939zm.312-.071c.049.213.098.42.147.621l-.311.076c-.05-.202-.1-.412-.148-.626zm-.517-.872zm.314-.064c.043.21.087.419.132.624l-.312.069c-.046-.206-.09-.417-.134-.63zm-.491-.886l.316-.054c.035.21.073.42.114.627l-.315.06c-.04-.209-.079-.421-.115-.633zm-.143-.957l.317-.041c.027.21.058.42.09.63l-.316.05a23.317 23.317 0 0 1-.091-.64zm-.1-.965l.32-.024c.015.21.035.42.059.632l-.318.036a17.615 17.615 0 0 1-.06-.644zm-.04-.971l.32-.001c0 .207.007.418.019.633l-.32.017c-.012-.22-.018-.437-.02-.649zm.045-.977l.318.032c-.02.203-.033.413-.04.627l-.32-.009c.007-.222.02-.44.042-.65zm.172-.97l.309.083a5.307 5.307 0 0 0-.125.609l-.316-.047c.034-.228.078-.445.132-.646zm.271-.926l.307.09-.18.615-.308-.09zm.273-.922l.307.09-.182.615-.307-.09zm-.437-4.328l.05-.335.316.047-.018.118.263.15-.158.278zm.2-1.246c.023-.031.048-.065.076-.098l.245.206a1.09 1.09 0 0 0-.036.045l-.071.488-.318-.047zm.879-.732l.14.288c-.15.072-.328.196-.49.34l-.212-.238c.185-.166.385-.304.562-.39zm.368 2.433l-.159.278-.556-.317.159-.279zm-.062.805c.078-.226.144-.404.195-.524l.06.026.085-.15.205.117-.055.132c-.05.115-.112.285-.186.503zm-.298.918c.07-.223.136-.429.196-.612l.304.1c-.06.182-.125.386-.194.608zm-.07 1.32l-.182.614-.307-.091.184-.615zm-.213-.4c.065-.214.127-.42.188-.613l.306.095-.188.611zm.694-5.163c.241.069.441.124.614.17l-.08.31a26.709 26.709 0 0 1-.622-.172zm1.221 17.473l-.64.032-.015-.32.64-.032zM5.117 7.183c.23.053.412.083.61.102l-.03.318a4.863 4.863 0 0 1-.652-.108zm1.26 17.18l-.639.032-.016-.32.64-.033zm-.34-17.059l.643.026-.015.32-.641-.026zM7.32 23.992l.017.32-.64.034-.016-.32zM7.003 7.346l.642.031-.015.32-.643-.031zm1.294 16.918l-.64.032-.016-.32.64-.032zm-.33-16.872l.641.031-.015.32-.642-.031zm.74 5.904l.317.04c-.026.208-.05.42-.074.634l-.318-.035c.023-.216.048-.43.075-.64zm.13-.957l.317.047c-.031.207-.06.418-.089.632l-.317-.042c.028-.216.058-.428.089-.637zm.15-.953l.315.054-.029.18.594.02-.01.32-.635-.02-.02.13-.317-.048c.033-.217.067-.43.102-.636zm-.059-3.949l.642.03-.015.32-.641-.03zm.842.166l.114.03.006-.15.642.03-.015.319-.47-.022c-.025.104-.066.267-.12.496l-.311-.074c.094-.403.154-.629.154-.629zm.512 2.106l.044-.317.638.091-.046.317zm-.104 2.261l.01-.32.641.02-.01.32zm.148 10.941zm.17.271c-.344.217-.435.35-.436.351l-.273-.168c.018-.03.13-.196.539-.454zM9.406 9.175c.049-.232.095-.443.138-.629l.312.07c-.042.186-.088.395-.137.625zm.063 1.32a67.02 67.02 0 0 0-.113.63l-.316-.056c.038-.218.076-.43.114-.633zm-.255-.375c.037-.191.073-.37.109-.545l.043-.317.642.09-.045.316-.323-.045-.111.561zm.447 4.954l-.035-.318c.192-.022.407-.045.639-.069l.032.319c-.23.023-.445.047-.636.068zm-.478 7.815l.3-.113c.074.2.155.393.244.578l-.29.137a7.592 7.592 0 0 1-.254-.602zm.057 1.006l.016.307-.023.014-.616.031-.016-.32zm-.382-3.886c.024.212.053.422.085.628l-.317.05a16.7 16.7 0 0 1-.086-.642zm-.083-.948c.014.213.03.424.05.633l-.318.031c-.021-.212-.038-.427-.051-.644zm-.039-.954c.005.212.011.425.021.636l-.32.015c-.01-.215-.016-.43-.02-.646zm0-.956c-.002.16-.004.317-.004.476v.16l-.319.003v-.163c0-.16.001-.321.004-.482zm.032-.955c-.01.212-.018.424-.024.637l-.32-.009c.006-.215.014-.43.025-.644zm.062-.955c-.016.21-.031.423-.044.637l-.32-.02c.013-.215.028-.43.045-.642zm-.02 6.402c-.048-.208-.091-.42-.13-.636l.315-.056c.038.21.08.416.128.619zm.388.233c.054.206.114.408.18.605l-.304.101a9.83 9.83 0 0 1-.185-.624zm.108-7.084l.037.318c-.396.046-.635.077-.636.077l-.037-.28-.134-.013c.018-.215.038-.429.06-.64l.318.032c-.019.185-.036.371-.052.558l.444-.052zm1.546-7.266l.641.029-.014.32-.641-.03zm.961.042l.641.028-.013.32-.642-.028zm.961.042l.641.027-.013.32-.641-.027zm.961.04l.64.027-.012.32-.641-.026zm.96.041l.642.026-.013.32-.641-.026zm1.243 2.104a2.068 2.068 0 0 0-.064.415c0 .028.003.042.004.047a.11.11 0 0 0-.082-.058l-.047.317a.22.22 0 0 1-.066-.022l-.002.011-.633-.098.048-.316.463.071c.004-.109.025-.249.067-.438zm-.06.462zm-.221-2.526l.641.025-.006.142.205.074c0 .001-.092.258-.205.604l-.305-.1c.053-.16.1-.3.137-.406l-.48-.02zm.671 10.95c.028.221.057.432.087.633l-.316.048c-.031-.203-.06-.418-.088-.641zm-.102-.952c.02.216.042.43.065.636l-.318.035a40.852 40.852 0 0 1-.066-.641zm-.4-.933l.32-.023c.015.214.032.427.05.638l-.319.027a97.079 97.079 0 0 1-.051-.642zm-.018 4.279zm.069.313c-.215.047-.422.094-.622.14l-.073-.311c.201-.048.41-.095.626-.142zm.138-11.898l-.31-.083c.054-.203.12-.419.182-.622l.306.096c-.061.198-.125.41-.178.609zm-.016 1.066l.05-.317.634.1-.05.317zm.598 9.687l-.31.08a8.687 8.687 0 0 1-.135-.64l.315-.056c.04.226.084.434.13.616zm-.645-8.136l.005-.32.64.009-.004.32zm.13 3.706c.012.212.026.426.04.64l-.319.022-.041-.642zm-.053-.96c.01.209.02.423.033.64l-.32.019a72.256 72.256 0 0 1-.032-.643zm-.394-1.912l.32-.01.02.641-.32.012-.02-.643zm.058 1.572c-.01-.21-.018-.415-.025-.608l.32-.012c.007.204.016.418.026.641l-.118.005.008.001-.056.316a5.543 5.543 0 0 0-.464-.059l.029-.319c.102.008.188.022.28.035zm-.704-2.422l.006-.32.642.011-.003.19.3-.006c0 .001.003.241.013.645l-.32.008-.012-.516zm-.044 9.51c-.215.053-.42.104-.617.156l-.08-.31c.198-.052.405-.104.622-.157zm-.506-6.844l.001-.32c.227.002.445.007.649.018l-.017.32c-.199-.011-.412-.016-.633-.018zm-.343-4.494l.048-.316.635.097-.048.316zm-.07 1.808l.008-.32.641.013-.006.32zm.092 2.366l.002.32c-.206.002-.42.007-.637.015l-.01-.32c.219-.008.435-.013.645-.015zm-.975-4.315l.047-.317.636.095-.047.316zm-.078 1.927l.007-.32.641.015-.007.32zm.086 2.417l.014.32c-.211.009-.425.02-.637.034l-.02-.32c.215-.013.43-.024.643-.034zm-.96-4.484l.045-.317.637.092-.047.317zm-.089 2.043l.009-.32.64.017-.008.32zm.085 2.497l.022.319a47.6 47.6 0 0 0-.638.048l-.026-.319c.21-.017.425-.034.642-.048zm-.95-4.677l.045-.317.637.091-.046.317zm.554 1.851l-.01.32-.641-.018.01-.32zm5.022 9.495a91.95 91.95 0 0 0-.624.128l-.067-.313.377-.078a2.106 2.106 0 0 1-.119-.287l.304-.101c.052.154.105.27.158.347l-.079.055zm-.195-13.423l.64.025-.011.32-.641-.025zm1.077 12.927l.059.314c-.215.04-.424.08-.628.12l-.06-.315c.204-.04.414-.079.63-.12zm-.746-9.989l.052-.316.635.104-.053.316zm.61 1.099l-.003.32-.642-.006.003-.32zm.02-3.999l.64.024-.012.32-.64-.024zm1.063 12.72l.054.316c-.214.036-.424.074-.629.11l-.056-.315c.205-.036.416-.074.631-.11zm-.743-9.664l.053-.316.634.107-.055.316zm.62.946v.32l-.642-.002.001-.32zm.02-3.966l.64.023-.01.32-.642-.023zm1.053 12.529l.05.316c-.215.034-.425.068-.63.103l-.053-.316c.206-.035.417-.07.633-.103zm-.745-9.347l.055-.316.634.112-.057.316zm.632.78l.003.32-.642.004-.001-.32zm.663-3.905l-.01.32-.62-.022-.01-.321zm.4 12.326l.047.316-.631.096-.05-.316c.207-.033.419-.065.635-.096zm-.748-9.031l.059-.315c.22.041.432.081.633.121l-.063.314c-.199-.04-.409-.08-.629-.12zm.643.595l.008.32c-.203.004-.418.009-.642.012l-.005-.32c.223-.003.437-.007.64-.012zm.026-3.88l.64.022-.01.32-.641-.021zm1.031 12.179l.044.317-.633.09-.045-.318.634-.089zm-.756-8.712zm.064-.314c.23.048.442.093.632.137l-.071.312a27.73 27.73 0 0 0-.625-.135zm.59.69l.02.319c-.194.011-.41.02-.645.029l-.01-.32c.23-.008.444-.017.635-.029zm.032-3.81l.64.02-.01.32-.64-.02zm1.024 12.018l.041.318-.633.083-.044-.317zm-.775-8.375l.078-.31c.3.076.51.14.64.2l-.081.18.093.294c-.129.04-.348.074-.669.1l-.026-.32c.146-.011.26-.024.347-.036a6.909 6.909 0 0 0-.382-.108zm.712-3.614l.64.02-.008.32-.642-.02zm1.056 12.187l-.634.08-.041-.318.636-.08zm-.095-12.16l.641.018-.009.32-.64-.017zm.963 2.104c-.035.2-.07.41-.103.63l-.316-.048c.033-.222.069-.435.104-.637zm-.133-1.006l.313.066c-.04.187-.081.397-.124.626l-.314-.06c.043-.23.085-.443.125-.632zm.123-.751l.009-.32.64.015-.007.32-.269-.006c-.026.104-.065.269-.115.496l-.313-.069c.04-.183.074-.328.1-.435zm.538 10.24c.036.212.07.425.103.637l-.316.048a32.43 32.43 0 0 0-.102-.63zm-.488-.886zm.314-.062c.041.207.08.419.12.632l-.316.057c-.038-.211-.077-.421-.118-.627zm-.307 2.09l.037.318-.635.074-.038-.317zm-.324-4.89c.026.22.06.428.1.618l-.312.068c-.043-.2-.08-.418-.106-.647zm-.064-.943c.004.214.015.424.032.63l-.32.027c-.017-.213-.028-.43-.032-.65zm.012-.95c-.01.212-.015.424-.015.634h-.32c0-.215.006-.432.016-.648zm-.217-1.302c.024-.218.052-.432.08-.64l.318.044c-.029.205-.055.417-.08.632zm.286.352c-.02.209-.038.42-.051.633l-.32-.02c.014-.216.032-.431.052-.644zm.407 4.697c.048.204.096.414.141.63l-.313.067a25.2 25.2 0 0 0-.14-.622zm-.388-.234a14.976 14.976 0 0 0-.145-.526l-.025-.089.308-.085.024.083c.051.17.1.35.148.537zm1.12 4.68l-.319.033a42.642 42.642 0 0 0-.072-.634l.318-.039c.026.217.05.431.073.64zm.124-1.517l.035.318-.3.033c.01.069.02.138.028.206l-.318.042c-.008-.07-.02-.142-.029-.212l-.016.002-.036-.319h.01l-.015-.104.317-.046.015.114zm-.296 3.457c-.007-.198-.019-.41-.035-.636l.32-.022c.015.228.027.445.035.645zm.01.317l.32-.006.002.226c0 .162-.003.306-.012.428l-.319-.021c.008-.116.011-.252.011-.406zm.242-15.347l.641.013-.006.32-.642-.013zm1.033 11.791l-.636.066-.034-.318.637-.066zM26.23 8.066l.642.01-.005.32-.642-.01zm1.027 11.678l-.637.062-.032-.318.638-.063zM27.19 8.08l.641.007-.002.32-.643-.007zm1.02 11.574l-.637.06-.03-.32.638-.059zM28.152 8.09l.64.001v.32l-.642-.001zm1.016 11.48l-.638.056-.029-.319.64-.055zm.582-11.487l.005.32c-.2.003-.415.006-.642.007l-.002-.32c.227-.001.44-.003.64-.007zm.374 11.408l-.637.052-.028-.319.64-.052zm.581-11.434l.015.319c-.193.009-.408.016-.644.021l-.007-.32c.233-.005.445-.012.636-.02zm.376 11.358l-.639.05-.024-.32.638-.05zm.366-11.41l.205-.024.037.318-.208.024a10.51 10.51 0 0 1-.439.036l-.02-.32c.161-.01.302-.022.425-.035zm.591 11.338l-.639.047-.023-.319.639-.047zm.554-11.505l.058.315c-.21.04-.423.075-.638.105l-.045-.317c.21-.03.42-.064.625-.103zm.403 11.437l-.639.045-.022-.319.639-.045zm.528-11.637l.076.311c-.207.052-.418.1-.631.143l-.064-.314c.208-.043.415-.09.619-.14zm.919-.252l.092.307c-.203.062-.411.12-.62.176l-.083-.31c.206-.054.41-.112.61-.173zm.47 11.764l-.64.04-.02-.319.64-.04zm.433-12.064l.109.302c-.2.072-.404.141-.611.208l-.1-.304c.205-.066.406-.136.602-.206zm.525 12.008l-.64.037-.019-.319.64-.038zm.364-12.353l.123.295c-.194.081-.395.161-.6.239l-.113-.3c.202-.076.399-.154.59-.234zm.594 12.298l-.638.036-.02-.32.64-.035zm.278-12.685l.09.187h.04l.001.089.006.012-.006.002.006.544-.32.003-.004-.402c-.089.04-.173.08-.264.12l-.128-.294c.199-.085.392-.173.579-.262zm.148 1.8l-.32.004-.008-.644.32-.003zm.01.964l-.32.003-.007-.643.32-.003zm.012.963l-.32.004-.008-.642.32-.004zm.013.964l-.32.004-.008-.643.32-.004zm.014.962l-.32.004-.01-.641.32-.005zm.013.963l-.32.004-.01-.642.32-.004zm.016.962l-.32.006-.01-.61.32-.037zm.016.963l-.32.004-.011-.641.32-.006zm.016.961l-.32.006-.011-.642.32-.005zm.018.963l-.32.006-.012-.642.32-.005zm.02.962l-.32.007-.013-.642.32-.007zm-.254 1.24l-.015-.272h-.03l-.014-.64.32-.007.012.584.349-.018.016.32zm.444 4.852c.013.24.026.454.04.638l-.318.025a29.058 29.058 0 0 1-.042-.646zm-.045-.962l.03.64-.32.017-.03-.644zm-.035-.962l.023.641-.32.013-.023-.643zm-.031-.961c.006.219.012.433.02.64l-.32.012c-.008-.208-.014-.423-.02-.643zm-.354-1.275l-.016-.642.32-.008.016.641zm.328.313l.018.64-.32.01-.018-.642zm.5-14.103l.153.282c-.182.099-.374.198-.574.297l-.142-.288c.197-.096.385-.194.564-.29zm.792 13.017l-.64.032-.016-.32.64-.031zm.035-13.49l.168.273c-.174.106-.36.216-.559.327l-.156-.279c.194-.11.377-.217.547-.321zm1.882 13.402l-.64.028-.013-.32.64-.029zm.757-14.568l.048.316c-.226.034-.439.069-.628.104l-.058-.315c.192-.036.408-.07.638-.105zm.203 14.528l-.64.027-.013-.32.64-.027zm.753-14.661l.041.318c-.213.027-.427.056-.633.086l-.045-.318c.207-.03.422-.058.637-.086zm.206 14.623l-.64.025-.012-.32.64-.025zm.751-14.74l.037.317-.635.077-.04-.317zm.21 14.705l-.641.023-.011-.32.64-.023zm.744-14.82l.038.317-.6.072-.075-.313zm.215 14.786l-.64.022-.01-.32.639-.022zM45.24 3.8l.043.317c-.206.027-.419.054-.638.08l-.038-.317c.217-.026.428-.053.633-.08zm.945-.14l.053.316c-.203.034-.416.066-.637.097l-.046-.317c.22-.03.43-.063.63-.096zm.93-.19l.077.311c-.195.05-.408.095-.634.138l-.06-.315c.22-.041.426-.086.617-.134zm.615-.194c.141-.057.295.003.426.172l-.254.196c-.046-.06-.071-.07-.072-.07-.086.041-.2.081-.322.119l-.094-.306c.114-.035.218-.072.316-.11zm.834 1.1l-.306.095a4.756 4.756 0 0 0-.214-.581l.29-.135c.076.167.154.376.23.622zm.246.945l-.313.068a13.079 13.079 0 0 0-.15-.615l.308-.084c.053.195.105.406.155.63zm.185.952l-.316.053a17.19 17.19 0 0 0-.116-.625l.314-.064c.042.204.082.417.118.636zm.143.957l-.318.04a21.79 21.79 0 0 0-.089-.63l.316-.049c.033.209.064.423.091.639zm.103.963l-.319.027c-.018-.21-.04-.423-.064-.633l.318-.037c.025.213.047.428.065.643zm.065.967l-.32.013a23.5 23.5 0 0 0-.036-.635l.318-.023c.016.216.029.432.038.645zm9.894-.277c-.337-.405-4.521-4.049-5.061-5.061-.54-1.013-2.126-1.754-2.295-1.822-.17-.068-.237-.44-.54-.709-.493-.438-.215-.583-.193-.993-.313-.104-2.265 1.233-3.83 1.86-1.564.626-7.197.73-8.136 1.564-.938.834-4.276 2.712-7.823 3.084C27.774 7.18 6.6 6.12 6.6 6.12c-.877-.043-.782.03-2.064-.342C3.253 5.407 1.769 6.992 1.702 7.5c-.069.506-1.25 8.334-1.25 8.334s-.548-.168-.438.978c.178 1.859.023.304 0 6.917C0 27.925 1.533 28.79 1.533 28.79c.168-.472 1.065-2.63.585-4.274-2.811-9.61.245-14.145 1.054-15.253-.273.635-.802 2.386-1.712 5.49-1.186 4.05 1.658 11.305 1.389 11.574-.27.27-1.08 3.24-.912 4.252.17 1.012-.54 8.637-.472 9.11.068.472 3.61.472 3.476 0-.135-.473.37-7.39.776-7.895.405-.507.506-.81 2.396-4.083s3.812-3.003 5.837-1.519c2.024 1.486 7.457 3.577 8.84 2.632 1.384-.944 8.335-2.598 9.55-2.867 1.215-.27 4.757.101 4.994.81.236.708 2.497 5.972 2.058 6.883-.44.91.304 3.374.304 3.374s2.767.033 2.598 0c-.169-.033.472-.844 0-1.991-.473-1.147-.911-2.767-.708-3.307.203-.54.877-4.42.877-4.42.337-.303 2.373-1.58 2.901-3.712 1.642-6.622 5.601-10.292 5.838-10.392.236-.1 3.88-2.497 5.5-1.957 1.62.539 2.834-1.958 2.497-2.363z"/></g></g></svg>