<svg xmlns="http://www.w3.org/2000/svg" width="66" height="66" viewBox="0 0 66 66"><g><g clip-path="url(#clip-26d3a36f-b3ba-4e69-ace6-f6525e2a0670)"><path fill="#fff" d="M49.295 29.91a12.722 12.722 0 0 0 2.307-2.39c.659-.906 1.236-2.06 1.648-3.46.247-.824.412-1.648.576-2.554L42.95 32.382c.247-.082.577-.082.824-.165.906-.164 1.895-.494 2.801-.824a8.752 8.752 0 0 0 2.72-1.483zm-16.81 15.903l.577.33c.33.247.824.494 1.566.741.66.247 1.4.577 2.307.906.906.33 1.813.577 2.884.742 1.071.165 2.142.247 3.213.247 1.072 0 2.225-.165 3.379-.494 1.153-.33 2.224-.907 3.296-1.566 1.07-.659 2.06-1.648 3.048-2.966.989-1.318 1.813-2.802 2.555-4.614-1.484-1.154-2.967-2.06-4.532-2.555-1.566-.576-2.967-.824-4.285-.741-1.318 0-2.554.247-3.873.659-1.318.412-2.39.906-3.295 1.4-.907.495-4.12 2.39-4.45 2.72l-5.932 5.932c-2.143 3.79-4.78 6.757-7.91 8.982-3.296 2.39-6.922 3.543-10.712 3.543-.412 0-.742.165-1.071.412-.248.247-.412.659-.412 1.07 0 .413.164.742.412 1.072.247.247.659.412 1.07.412 4.615 0 8.9-1.483 12.772-4.367 3.708-2.884 6.922-6.839 9.394-11.865zm-15.82-11.865a24.583 24.583 0 0 0-7.086 1.895c.742 1.812 1.566 3.46 2.472 4.861a26.16 26.16 0 0 0 1.73 2.225l8.652-8.652c-.082 0-.082 0-.165-.082-1.483-.412-3.378-.495-5.603-.247zm10.63-22.577a12.613 12.613 0 0 0 1.07 3.708c.578 1.236 1.154 2.307 1.813 3.13.66.825 1.319 1.649 2.143 2.39.824.742 1.318 1.236 1.648 1.483.165.083.33.248.412.33l4.696-4.697a7.024 7.024 0 0 0 .248-1.895c.082-.906.082-1.895 0-2.801-.083-.989-.248-1.978-.66-2.966-.412-.99-.906-1.978-1.565-2.802-.66-.906-1.566-1.73-2.802-2.554-1.236-.824-2.636-1.483-4.202-2.06-1.153 1.483-1.895 3.048-2.307 4.614a8.224 8.224 0 0 0-.494 4.12zm-1.813 19.858l6.674-6.675c-.247-.412-.577-.824-.906-1.236-.577-.659-1.154-1.4-1.895-2.06a7.637 7.637 0 0 0-2.472-1.647 10.166 10.166 0 0 0-3.05-.99c-1.07-.246-2.306-.246-3.707 0-1.4.166-2.884.578-4.45 1.237.165 1.565.413 2.966.907 4.202.494 1.236 1.071 2.307 1.813 3.131.741.824 1.565 1.566 2.472 2.142a12.69 12.69 0 0 0 2.801 1.401c.577.165 1.154.33 1.813.495zm30.816 25.13c12.854-12.853 12.854-33.782.083-46.719C49.954 3.214 41.467 0 33.062 0h-.33c1.237.577 2.39 1.154 3.38 1.813a14.214 14.214 0 0 1 3.625 3.296c.906 1.07 1.565 2.307 2.06 3.543.164.412.247.906.411 1.318 1.813.742 3.544 1.648 5.191 2.802L12.958 47.214c-6.922-9.64-6.015-23.154 2.636-31.806 2.39-2.472 5.274-4.284 8.405-5.52 0-1.154.247-2.39.577-3.708.576-1.895 1.483-3.873 2.883-5.686C20.95 1.566 14.77 4.614 9.744 9.64-3.027 22.412-3.192 42.93 9.332 55.865c.247-.082.577-.082.824-.082.742 0 1.483-.083 2.225-.165.33 0 .659-.082.989-.165.082 0 .164-.082.247-.082.247 0 .494-.083.741-.165.165 0 .247-.082.33-.082l.741-.248s.083-.082.165-.082c.66-.33 1.319-.577 1.978-.989.082 0 .082-.082.165-.082.33-.165.576-.33.824-.494l.082-.083c.082-.082.247-.165.33-.247l5.026-5.026 31.475-31.558 1.896.659-.083 2.39c0 2.06-.33 3.954-.824 5.602v.083c2.884 8.569.907 18.54-5.932 25.378-4.697 4.697-10.877 7.251-17.469 7.251-1.565 0-3.13-.165-4.614-.412a30.242 30.242 0 0 1-3.543 3.049 21.871 21.871 0 0 1-4.944 2.966 32.357 32.357 0 0 0 13.019 2.72c8.404 0 16.891-3.214 23.318-9.641z"/></g></g></svg>