<svg xmlns="http://www.w3.org/2000/svg" width="35" height="29" viewBox="0 0 35 29"><g><g><path fill="#e56db1" d="M25.499 24.416c0 .652-.543 1.195-1.195 1.195h-.616a1.206 1.206 0 0 1-1.195-1.195v-8.91c0-.652.543-1.195 1.195-1.195h.616c.652 0 1.195.543 1.195 1.195zm-6.773 0c0 .652-.544 1.195-1.196 1.195h-.615a1.206 1.206 0 0 1-1.196-1.195v-8.91c0-.652.544-1.195 1.196-1.195h.615c.652 0 1.196.543 1.196 1.195zm-6.773 0c0 .652-.544 1.195-1.196 1.195h-.615a1.206 1.206 0 0 1-1.196-1.195v-8.91c0-.652.544-1.195 1.196-1.195h.615c.652 0 1.196.543 1.196 1.195zM32.526 10.4h-2.898L24.919.982c-.434-.87-1.485-1.195-2.354-.76-.87.434-1.195 1.484-.76 2.354l3.947 7.86H8.657l3.948-7.897c.434-.869.072-1.92-.761-2.354a1.774 1.774 0 0 0-2.354.76L4.78 10.364H1.883A1.87 1.87 0 0 0 0 12.246v1.123a1.87 1.87 0 0 0 1.883 1.884h.435l2.5 12.206c.18.869.941 1.485 1.846 1.485h21.153c.905 0 1.666-.616 1.847-1.485l2.5-12.206h.434a1.87 1.87 0 0 0 1.883-1.884v-1.123c-.072-1.014-.905-1.847-1.955-1.847z"/></g></g></svg>