<svg xmlns="http://www.w3.org/2000/svg" width="100" height="84" viewBox="0 0 100 84"><g><g><path fill="#552e91" d="M73.548 70.26c0 1.868-1.556 3.425-3.425 3.425H68.36c-1.869 0-3.426-1.557-3.426-3.426V44.726c0-1.869 1.557-3.425 3.426-3.425h1.764c1.869 0 3.425 1.556 3.425 3.425zm-19.41 0c0 1.868-1.556 3.425-3.424 3.425h-1.765c-1.868 0-3.425-1.557-3.425-3.426V44.726c0-1.869 1.557-3.425 3.425-3.425h1.765c1.868 0 3.425 1.556 3.425 3.425zm-19.409 0c0 1.868-1.557 3.425-3.425 3.425h-1.765c-1.868 0-3.425-1.557-3.425-3.426V44.726c0-1.869 1.557-3.425 3.425-3.425h1.765c1.868 0 3.425 1.556 3.425 3.425zm50.652-40.17L71.888 3.105C70.642.613 67.632-.321 65.14.924c-2.491 1.246-3.425 4.256-2.18 6.747l11.314 22.523H25.284L36.597 7.567c1.246-2.491.208-5.501-2.18-6.747-2.49-1.245-5.5-.207-6.746 2.18L14.178 29.987H5.874a5.36 5.36 0 0 0-5.397 5.397v3.218a5.36 5.36 0 0 0 5.397 5.397h1.245l7.162 34.98c.52 2.49 2.699 4.255 5.294 4.255H80.19c2.595 0 4.775-1.765 5.294-4.256L92.647 44h1.245a5.36 5.36 0 0 0 5.398-5.397v-3.218c-.208-2.906-2.595-5.293-5.605-5.293z"/></g></g></svg>