<svg xmlns="http://www.w3.org/2000/svg" width="66" height="66" viewBox="0 0 66 66"><g><g clip-path="url(#clip-c2470d72-554d-42be-ab90-f4d49200ad3f)"><g><path fill="#fff" d="M33 51.333s2.818-2.363 3.307-2.75h-6.614c.49.387 3.307 2.75 3.307 2.75z"/></g><g><path fill="#fff" d="M52.188 37.413c-.013-.016-.034-.03-.05-.045a.512.512 0 0 0-.123-.09c-.027-.014-.06-.025-.093-.037a1.251 1.251 0 0 0-.306-.074 2.4 2.4 0 0 0-.243-.02c-.046 0-.092-.004-.14-.003-.164.003-.34.015-.533.045-.03.004-.062.012-.093.017-.167.028-.346.07-.533.12-.06.014-.122.033-.184.051a7.52 7.52 0 0 0-.627.222c-.028.012-.053.019-.08.03a8.268 8.268 0 0 0-.941.479 9.01 9.01 0 0 0-.615.392c-.064.044-.126.084-.19.13a9.94 9.94 0 0 0-.776.63c-.054.047-.107.103-.16.153a10.834 10.834 0 0 0-.84.878c-.254.298-.504.61-.746.959-.32.463-.626.895-.925 1.311-1.445 2.018-2.645 3.522-3.658 4.664a26.832 26.832 0 0 1-1.797 1.856c-.613.57-1.143.992-1.61 1.335-1.623 1.185-2.543 1.448-3.926 3.842-1.383-2.395-2.304-2.657-3.926-3.842a18.313 18.313 0 0 1-2.132-1.833c-.39-.387-.815-.839-1.276-1.359-1.014-1.143-2.214-2.645-3.658-4.664-.3-.416-.605-.848-.926-1.31a11.975 11.975 0 0 0-1.584-1.838c-.054-.05-.108-.105-.162-.154-.258-.23-.518-.44-.776-.628-.063-.046-.126-.087-.19-.13a9.013 9.013 0 0 0-.614-.393c-.069-.04-.137-.08-.205-.117a8.165 8.165 0 0 0-.737-.361c-.028-.012-.053-.019-.08-.031a7.603 7.603 0 0 0-.625-.222c-.063-.018-.125-.036-.186-.052a5.83 5.83 0 0 0-.533-.12c-.03-.004-.063-.012-.092-.016a4.122 4.122 0 0 0-.533-.045c-.05 0-.095.002-.14.004a2.65 2.65 0 0 0-.243.019 1.52 1.52 0 0 0-.307.074c-.032.013-.065.024-.093.038a.512.512 0 0 0-.122.089c-.016.015-.038.029-.05.045a.282.282 0 0 0-.062.17c0 .917 3.666 2.75 5.5 11.176 1.559 7.165 9.166 11.916 13.75 11.916 4.583 0 12.19-4.75 13.75-11.916.048-.223.103-.423.154-.637a27.45 27.45 0 0 1 1.238-3.946c1.857-4.577 4.108-5.875 4.108-6.592a.253.253 0 0 0-.06-.17z"/></g><g><path fill="#fff" d="M49.557 45.59a27.38 27.38 0 0 0-1.015 3.56c-.036.164-.09.318-.13.478l4.698 4.697c-4.746 4.477-10.975 7.389-17.864 7.914-.742.057-1.49.094-2.246.094-.757 0-1.505-.037-2.247-.094-15.126-1.152-27.086-13.821-27.086-29.24 0-7.778 3.049-14.853 8.006-20.109l6.66 6.66 1.994 1.993c-.094-.73-.16-1.484-.16-2.293 0-1.02.08-1.956.226-2.825l-6.047-6.047A29.201 29.201 0 0 1 33 3.667c16.175 0 29.333 13.159 29.333 29.333 0 7.079-2.52 13.58-6.712 18.654zM33 0C14.803 0 0 14.803 0 33c0 18.195 14.803 33 33 33s33-14.805 33-33C66 14.803 51.197 0 33 0z"/></g><g><path fill="#fff" d="M27.5 43.083h-1.833c0-1.204.082-2.433.526-3.666H37.82c-.022-.044-.045-.086-.069-.13-.057-.104-.114-.21-.181-.316l-.023-.035a7.605 7.605 0 0 0-1.126-1.353h-9.265c.79-1.116 1.99-2.227 3.813-3.319-1.364-.627-2.591-1.268-3.673-1.934-3.16 2.38-4.483 4.964-4.995 7.48.097.132.195.259.29.395 1.378 1.99 2.53 3.513 3.516 4.71H38.5v-1.832h-11z"/></g><g><path fill="#fff" d="M43.52 39.063a11.07 11.07 0 0 0-.32-1.002 9.917 9.917 0 0 0-.133-.341c-.084-.205-.173-.41-.272-.615-.046-.094-.096-.188-.144-.281a10.741 10.741 0 0 0-.3-.542c-.05-.084-.098-.168-.15-.251a12.373 12.373 0 0 0-.476-.703c-.051-.07-.106-.138-.159-.208a12.96 12.96 0 0 0-.53-.646l-.103-.123a13.96 13.96 0 0 0-.903-.911 16.654 16.654 0 0 0-.849-.74l-.096-.073c-.29-.23-.599-.46-.923-.687-.064-.044-.126-.09-.191-.135-1.174-.8-2.567-1.576-4.227-2.314-.261-.115-.49-.23-.735-.345l-.01.005c-.165-.077-.316-.154-.473-.23-.102-.05-.206-.1-.305-.15a28.784 28.784 0 0 1-1.068-.561c-.096-.053-.183-.107-.275-.16a24.298 24.298 0 0 1-.666-.395c-.122-.077-.246-.153-.362-.228-.176-.115-.34-.23-.502-.343-.215-.15-.417-.3-.609-.45-.076-.06-.153-.119-.225-.178-.147-.12-.286-.239-.418-.358l-.064-.059a8.546 8.546 0 0 1-1.129-1.238l-.089-.12a7.204 7.204 0 0 1-.226-.34c-.043-.071-.082-.14-.121-.21-.054-.095-.11-.19-.156-.285-.001-.005-.005-.01-.007-.013-.024-.049-.041-.097-.062-.144a5.716 5.716 0 0 1-.277-.73c-.01-.031-.022-.063-.03-.093-.032-.114-.057-.227-.082-.338-.012-.057-.026-.112-.037-.168a7.123 7.123 0 0 1-.078-.5 8.364 8.364 0 0 1-.045-.493c-.006-.098-.012-.195-.015-.291l-.005-.183a40.383 40.383 0 0 1-.006-.726c0-.26.012-.5.021-.742.003-.07.002-.146.006-.215.246-4.761 2.368-6.57 5.353-8.473l.037-.023c.342-.217.69-.436 1.054-.66.286-.178.575-.367.862-.55.288.182.577.372.862.55.34.21.67.416.993.621l.12.076c.245.158.484.315.717.473l.082.056a20.21 20.21 0 0 1 .683.483c.455.34.88.69 1.268 1.071H31.194c-.21.144-.412.288-.605.433l-.01.008a10.803 10.803 0 0 0-.551.442c-.35.3-.665.614-.945.951h10.06c.273.488.504 1.027.687 1.632l.003.01c.183.606.318 1.274.4 2.025H27.609c-.07.553-.108 1.157-.108 1.834h12.832c0 .931-.008 1.906-.345 2.932-.08.242-.172.487-.293.734H28.478c.441.585 1.078 1.19 2.013 1.834H38.355c-.764.779-1.828 1.585-3.299 2.422a28.125 28.125 0 0 1 3.665 2.031c2.957-2.057 4.35-4.205 4.924-6.603.255-1.067.355-2.177.355-3.352 0-8.142-4.359-10.844-8.204-13.229a62.696 62.696 0 0 1-1.777-1.13h-.001a1.837 1.837 0 0 0-2.034 0c-.591.394-1.188.763-1.777 1.128-3.846 2.385-8.205 5.088-8.205 13.23l.002.126c.001.246.006.488.017.727.004.106.014.209.02.314.011.178.023.355.04.531a13.498 13.498 0 0 0 .17 1.169c.031.162.067.322.106.482.026.107.05.214.08.32.046.171.1.341.156.51.03.09.057.182.09.27.092.256.193.507.31.758l.038.076c.107.226.225.448.352.67.05.084.106.167.158.253.1.161.202.322.315.481a11.294 11.294 0 0 0 1.23 1.451c.091.092.179.182.274.272.168.16.348.317.531.474.087.075.168.149.258.223.281.23.577.458.894.686.033.024.073.048.107.073.287.203.588.406.907.607.12.076.25.15.374.228a33.7 33.7 0 0 0 3.825 1.976c.26.115.492.231.735.348l.01-.005c.113.053.212.107.32.16.16.08.319.158.471.238.231.12.452.24.667.359.142.08.286.158.422.238.21.124.408.248.601.371.12.077.244.152.357.227a15.311 15.311 0 0 1 1.082.804c.15.121.3.242.436.363.122.108.23.215.342.325.092.088.186.176.272.267.111.115.215.23.316.348a9.266 9.266 0 0 1 .487.606c.022.031.05.063.072.093.017.025.028.05.046.075.185.268.351.535.492.803l.03.053c.147.285.269.57.374.853l.021.049c.013.036.02.072.03.107.083.24.153.48.21.72.014.053.029.105.04.158.06.28.11.558.144.835l.012.118c.028.238.047.475.06.713a18.728 18.728 0 0 1 .027.958l.002.058v1.295a76.18 76.18 0 0 0 3.076-4.172c.094-.137.193-.263.29-.395a11.37 11.37 0 0 0-.18-.75z"/></g></g></g></svg>