<svg xmlns="http://www.w3.org/2000/svg" width="104" height="104" viewBox="0 0 104 104"><g><g><g transform="rotate(15 40.715 55.485)"><g><path fill="#552e91" d="M30.254 48.106v-.153a4.926 4.926 0 0 1 8.605-3.157 5.5 5.5 0 0 1 .636-.573c.032-.241.083-.48.153-.713a5.486 5.486 0 0 1-3.246-2.43 4.939 4.939 0 0 1 1.579-6.582c.146-.158.33-.276.534-.343l5.168-3.004-3.526-2.037-4.01-2.317a1.273 1.273 0 1 1 1.273-2.202l4.01 2.317a2.406 2.406 0 0 0 2.406-4.163l-9.547-5.511a12.436 12.436 0 0 0-11.761-.395l-5.296 2.622c-.374.2-.822.2-1.196 0l-5.257-3.042-4.837 8.427-4.876 8.452 5.258 3.03c.17.1.313.24.42.407L9.506 40.9a12.475 12.475 0 0 0 4.162 3.908l16.548 9.572z"/></g><g transform="rotate(-60 1.65 22.37)"><path fill="#552e91" d="M-11.775 24.776v-4.812h26.858v4.812z"/></g><g><path fill="#552e91" d="M81.628 16.436l-5.257 3.042c-.17.1-.362.158-.56.166l-4.977.305a12.525 12.525 0 0 0-5.473 1.655l-25.853 14.93a2.406 2.406 0 0 0-.891 3.272 2.546 2.546 0 0 0 2.864 1.159l.433-.28 11.023-6.365a1.273 1.273 0 0 1 1.273 2.202l-11.354 6.594h-.064a4.888 4.888 0 0 1 3.437 1.68 4.926 4.926 0 0 1 3.679-1.642c.592 0 1.18.113 1.73.33l5.321-3.13a1.273 1.273 0 0 1 1.273 2.189l-1.056.624h.063a4.952 4.952 0 0 1 4.94 4.951v6.365l3.474-2.011 4.01-2.317a1.273 1.273 0 1 1 1.273 2.202l-3.984 2.279a2.406 2.406 0 0 0 .585 4.404 2.33 2.33 0 0 0 1.82-.242l9.547-5.512a12.436 12.436 0 0 0 6.225-9.992l.369-5.88c.024-.43.264-.818.636-1.032l5.257-3.03-4.875-8.451z"/></g><g transform="rotate(-30 90.8 22.41)"><path fill="#552e91" d="M88.393 35.843V8.984h4.812v26.859z"/></g><g><path fill="#552e91" d="M57.265 45.7a2.546 2.546 0 0 0-2.431 1.896v13.76a1.273 1.273 0 1 1-2.546 0V47.698a2.38 2.38 0 0 0-1.057-1.604l-.165-.089a2.253 2.253 0 0 0-1.146-.318 2.406 2.406 0 0 0-2.418 2.419v13.467a1.273 1.273 0 0 1-2.546 0V48.106A2.406 2.406 0 0 0 42.55 45.7c-.403.001-.799.111-1.145.318a.776.776 0 0 1-.179.09 2.368 2.368 0 0 0-1.082 1.998v12.729a1.273 1.273 0 0 1-2.545 0v-12.73a2.406 2.406 0 1 0-4.8 0v19.349a1.273 1.273 0 0 1-2.545 0V62.82a2.406 2.406 0 1 0-4.812 0v11.024a12.474 12.474 0 0 0 5.512 10.386l4.914 3.272c.355.234.57.63.572 1.056v6.072h19.552v-6.008a1.45 1.45 0 0 1 .127-.573l2.228-4.519a12.449 12.449 0 0 0 1.273-5.562V48.106a2.406 2.406 0 0 0-2.356-2.406z"/></g><g><path fill="#552e91" d="M35.193 97.176H32.8v4.811h26.858v-4.811h-2.393z"/></g></g></g></g></svg>