<svg xmlns="http://www.w3.org/2000/svg" width="29" height="24" viewBox="0 0 29 24"><g><g><path fill="#eee" d="M21.068 20.255c0 .517-.43.948-.948.948h-.488a.956.956 0 0 1-.947-.948v-7.063c0-.516.43-.947.947-.947h.488c.517 0 .948.43.948.947zm-5.37 0c0 .517-.43.948-.947.948h-.488a.956.956 0 0 1-.947-.948v-7.063c0-.516.43-.947.947-.947h.488c.517 0 .948.43.948.947zm-5.368 0c0 .517-.43.948-.948.948h-.488a.956.956 0 0 1-.947-.948v-7.063c0-.516.43-.947.947-.947h.488c.517 0 .948.43.948.947zM26.638 9.144h-2.297L20.61 1.679a1.381 1.381 0 0 0-1.867-.603 1.381 1.381 0 0 0-.603 1.866l3.13 6.23H7.717l3.13-6.258a1.406 1.406 0 0 0-.603-1.867 1.406 1.406 0 0 0-1.867.603L4.645 9.115H2.348c-.833 0-1.493.66-1.493 1.493v.89c0 .833.66 1.493 1.493 1.493h.345l1.98 9.676a1.48 1.48 0 0 0 1.465 1.177h16.768a1.48 1.48 0 0 0 1.464-1.177l1.98-9.676h.345c.833 0 1.493-.66 1.493-1.493v-.89c-.057-.804-.717-1.464-1.55-1.464z"/></g></g></svg>