<svg xmlns="http://www.w3.org/2000/svg" width="44" height="25" viewBox="0 0 44 25"><g><g><path fill="#333" d="M.8 10.555l6.543-1.472 2.695-4.333c3.912-.642 7.865-.695 11.908-.695 4.04 0 7.996.053 11.961.695l2.723 4.333c.655.13 1.307.267 1.94.4l.07.015c1.57.333 3.054.648 4.645.862L44 9.027c-.634-1.873-1.778-4.473-3.63-6.222C35.19.97 28.82 0 21.945 0 15.368 0 9.359 1.008 3.574 3.082 1.752 4.776.624 7.325 0 9.168l.797 1.388h.002zm25.6 6.113c0 2.383-1.932 4.25-4.4 4.25-2.468 0-4.4-1.867-4.4-4.25 0-2.436 1.974-4.418 4.4-4.418s4.4 1.982 4.4 4.418zM22.167 25c3.597 0 7.178-.31 10.642-.61.384-.04.77-.077 1.154-.112.863-.08 1.84-.17 2.806-.333l.146-.025c.713-.122 1.228-.211 1.228-.837 0-.926-4.527-9.838-6.46-13.644l-.01-.019a233.97 233.97 0 0 1-.614-1.21l-.013-.024-.135-.268a79.367 79.367 0 0 0-4.51-.278l-1.541 2.583h-5.802L17.545 7.64c-1.68.061-3.163.151-4.537.278-.168.337-.443.887-.792 1.577l-.015.031C10.142 13.62 5.858 22.14 5.858 23.083c0 .678.487.745 1.292.855l.055.007c.886.131 1.793.213 2.67.291l.124.012.198.018c.51.046 1.036.094 1.544.151 3.346.295 6.907.583 10.425.583z"/></g></g></svg>