<svg xmlns="http://www.w3.org/2000/svg" width="66" height="66" viewBox="0 0 66 66"><g><g><g><g><path fill="#fff" d="M34.57 25.082a.99.99 0 0 1-.573.44 37.881 37.881 0 0 1 4.555 15.699 41.309 41.309 0 0 1 6.38-11.611c3.13-3.96 5.858-5.804 5.972-5.877a1.005 1.005 0 0 1 1.119 1.67c-.026.017-2.63 1.787-5.568 5.527-2.706 3.44-6.263 9.318-7.835 17.715-.049.252-.191.475-.399.625a38.052 38.052 0 0 1-2.315 8.546A35.936 35.936 0 0 0 62.933 7.831a35.91 35.91 0 0 0-28.363 17.25z"/></g><g><path fill="#fff" d="M5.192 40.96a35.896 35.896 0 0 0 24.756 16.826L16.47 30.906a1.003 1.003 0 1 1 1.793-.9L32.361 58.11c.215.022.43.042.644.059.199-.016.398-.034.597-.055A35.936 35.936 0 0 0 3.071 7.831a35.908 35.908 0 0 0 2.121 33.13z"/></g></g></g></g>
</svg>