<svg xmlns="http://www.w3.org/2000/svg" width="36" height="35" viewBox="0 0 36 35"><g><g><g><path fill="#180c34" d="M.62 17.5C.62 7.835 8.455 0 18.12 0s17.5 7.835 17.5 17.5S27.785 35 18.12 35 .62 27.165.62 17.5z"/></g><g><path fill="#fff" d="M22.24 16.18c0 3-2.44 5.44-5.44 5.44-3.01 0-5.46-2.44-5.46-5.44 0-3.01 2.45-5.46 5.46-5.46 3 0 5.44 2.45 5.44 5.46zM26.52 28l2.1-2.1-5.08-5.1a8.107 8.107 0 0 0 1.44-4.62c0-4.51-3.67-8.18-8.18-8.18s-8.18 3.67-8.18 8.18 3.67 8.18 8.18 8.18c1.62 0 3.268-.511 4.64-1.44L26.519 28z"/></g></g></g></svg>